<?xml version="1.0" standalone="no"?>
<!DOCTYPE svg PUBLIC "-//W3C//DTD SVG 20010904//EN"
 "http://www.w3.org/TR/2001/REC-SVG-20010904/DTD/svg10.dtd">
<svg version="1.0" xmlns="http://www.w3.org/2000/svg"
 width="630.000000pt" height="630.000000pt" viewBox="0 0 630.000000 630.000000"
 preserveAspectRatio="xMidYMid meet">

<g transform="translate(0.000000,630.000000) scale(0.100000,-0.100000)"
fill="#000000" stroke="none">
<path d="M3414 5903 c3 -10 24 -92 46 -183 23 -91 72 -284 110 -430 38 -146
85 -341 104 -434 20 -92 54 -222 76 -288 23 -66 39 -122 37 -125 -3 -2 -101
27 -218 66 -258 84 -343 101 -503 101 -206 0 -380 -42 -614 -149 -62 -28 -116
-51 -121 -51 -10 0 36 138 97 292 55 136 142 328 279 613 166 343 251 527 259
560 6 23 3 25 -28 25 -21 0 -41 -7 -50 -17 -9 -10 -43 -79 -76 -153 -33 -74
-115 -252 -182 -395 -202 -428 -268 -581 -345 -800 -39 -111 -45 -122 -80
-142 -26 -14 -46 -37 -62 -70 -19 -38 -42 -62 -116 -115 -123 -90 -180 -141
-460 -407 -131 -124 -244 -229 -252 -233 -10 -6 -12 9 -8 80 7 137 22 261 43
342 17 68 193 562 460 1295 193 529 181 492 164 510 -8 8 -26 15 -40 15 -21 0
-32 -16 -85 -127 -138 -287 -245 -568 -430 -1123 -174 -524 -203 -652 -213
-935 -6 -147 -18 -200 -58 -258 -12 -18 -95 -124 -184 -237 -89 -113 -286
-365 -438 -560 -288 -372 -298 -387 -262 -435 15 -21 -29 -74 586 708 184 234
340 426 345 427 6 0 21 -79 34 -177 13 -98 30 -203 37 -233 19 -77 17 -125 -5
-168 -17 -33 -719 -731 -828 -822 l-41 -35 22 -38 23 -38 270 253 c149 139
340 319 425 401 151 143 182 164 205 135 6 -7 32 -85 58 -173 99 -337 192
-501 409 -723 61 -62 112 -117 114 -122 2 -6 -8 -10 -22 -10 -14 0 -162 -18
-329 -40 -316 -41 -571 -65 -789 -76 l-127 -6 15 -29 c8 -17 25 -33 37 -38 26
-9 366 11 577 34 184 20 629 83 641 91 5 3 23 -6 40 -20 41 -34 71 -41 123
-26 41 11 46 10 123 -28 43 -22 162 -75 264 -117 101 -42 188 -81 193 -85 11
-11 -4 -14 -157 -40 -141 -24 -197 -29 -850 -80 -419 -33 -743 -69 -766 -86
-9 -8 32 -55 60 -69 26 -14 41 -15 98 -6 37 6 180 17 317 26 628 38 656 41
1164 126 195 32 371 59 390 59 20 0 76 -9 125 -19 120 -26 288 -48 470 -61 83
-6 177 -15 210 -20 33 -6 386 -14 785 -19 779 -10 760 -11 808 41 l23 25 -113
6 c-62 4 -322 7 -578 7 -256 0 -559 5 -675 10 -357 17 -847 67 -844 85 1 6 70
35 153 66 188 70 390 162 501 228 76 46 89 51 124 45 51 -8 85 1 111 28 l20
22 112 -17 c62 -10 405 -58 761 -108 590 -82 651 -89 672 -75 12 8 25 24 28
35 4 15 -1 21 -22 25 -41 9 -1464 236 -1479 236 -6 0 48 60 121 133 315 314
485 636 530 1010 8 70 16 101 27 107 18 10 46 -21 380 -420 238 -284 431 -505
572 -654 l93 -98 24 32 23 32 -60 62 c-50 51 -289 326 -802 922 -126 146 -183
221 -176 232 10 17 -16 98 -40 123 -31 32 -37 58 -64 264 -12 88 -30 204 -41
258 -11 54 -19 103 -16 110 4 12 291 -257 447 -419 112 -117 304 -345 640
-759 343 -423 344 -424 358 -424 8 -1 12 16 12 52 0 88 -54 165 -479 687 -96
118 -220 267 -275 330 -146 169 -410 428 -577 567 -80 66 -157 137 -172 157
-29 38 -77 133 -77 153 0 12 -624 1678 -657 1756 -16 38 -41 52 -81 45 -18 -3
12 -88 319 -913 186 -500 337 -910 336 -911 -1 -1 -58 31 -127 72 -69 41 -181
105 -249 141 -68 37 -131 78 -140 91 -9 12 -28 39 -44 59 -63 84 -85 150 -188
586 -98 417 -127 526 -204 770 l-37 117 -40 0 c-33 0 -38 -3 -34 -17z m-182
-1398 c93 -16 308 -79 432 -127 53 -21 94 -44 122 -72 24 -23 52 -48 62 -57
13 -11 24 -41 32 -90 7 -41 23 -126 35 -189 12 -63 21 -116 20 -118 -1 -1 -53
22 -116 52 -195 94 -352 130 -564 130 -354 0 -588 -96 -997 -407 -122 -93
-148 -108 -148 -88 0 17 70 375 81 411 5 19 14 60 19 90 5 31 30 98 57 151 47
94 50 97 113 132 68 37 247 112 338 142 165 53 354 68 514 40z m878 -317 c53
-31 395 -267 418 -288 61 -57 181 -691 135 -707 -7 -3 -13 1 -13 7 0 17 -179
216 -302 336 -56 55 -140 128 -185 162 -117 88 -127 110 -169 344 -18 106 -34
199 -34 205 0 13 83 -19 150 -59z m-1950 -23 c0 -3 -18 -76 -39 -163 -47 -186
-67 -299 -80 -445 -6 -67 -15 -116 -25 -130 -26 -39 -621 -638 -632 -637 -23
0 -56 193 -74 438 -13 169 -23 146 121 300 260 278 729 688 729 637z m1281
-221 c120 -20 272 -70 387 -128 96 -48 126 -77 142 -135 11 -43 50 -545 50
-651 0 -213 -69 -520 -153 -685 -48 -94 -163 -216 -316 -333 -267 -206 -409
-221 -718 -77 -142 67 -257 147 -364 254 -190 190 -300 406 -355 696 -22 115
-26 434 -5 480 14 32 129 138 258 238 237 183 480 301 699 341 107 19 261 19
375 0z m673 -306 c86 -67 223 -198 353 -338 163 -174 189 -210 174 -239 -19
-35 -13 -71 20 -103 l31 -31 -11 -100 c-28 -257 -130 -501 -311 -747 -70 -94
-296 -329 -349 -362 -38 -24 -116 -41 -176 -39 -46 2 -482 88 -502 100 -9 5
13 21 69 49 348 173 560 440 632 797 48 239 62 632 31 880 -16 131 -18 165 -9
165 3 0 25 -15 48 -32z m-2095 -490 c1 -225 29 -386 102 -575 131 -335 398
-594 786 -760 59 -25 109 -47 111 -48 7 -6 -246 -63 -557 -126 -249 -50 -348
-66 -361 -59 -10 6 -40 10 -66 10 -48 0 -48 0 -159 113 -209 213 -331 435
-411 750 l-25 101 20 37 c25 44 26 62 4 99 l-16 28 262 269 c145 147 268 278
273 290 6 12 16 19 24 16 9 -3 13 -39 13 -145z m1491 -1492 c118 -26 233 -52
255 -58 38 -10 39 -11 20 -25 -41 -31 -316 -163 -450 -216 -173 -69 -397 -137
-450 -137 -81 0 -323 84 -565 195 -123 57 -154 74 -147 82 2 2 98 21 213 43
115 22 324 70 464 105 242 62 260 65 350 61 63 -2 166 -19 310 -50z"/>
</g>
</svg>
