<?xml version="1.0" standalone="no"?>
<!DOCTYPE svg PUBLIC "-//W3C//DTD SVG 20010904//EN"
 "http://www.w3.org/TR/2001/REC-SVG-20010904/DTD/svg10.dtd">
<svg version="1.0" xmlns="http://www.w3.org/2000/svg"
 width="851.000000pt" height="122.000000pt" viewBox="0 0 851.000000 122.000000"
 preserveAspectRatio="xMidYMid meet">

<g transform="translate(0.000000,122.000000) scale(0.100000,-0.100000)"
fill="#000000" stroke="none">
<path d="M4060 963 c-51 -115 -164 -355 -251 -535 l-157 -328 53 0 52 0 31 88
c17 48 53 141 80 207 l48 120 200 3 199 2 39 -102 c22 -57 56 -150 77 -208
l37 -105 71 -3 c79 -3 81 -1 52 56 -38 74 -186 424 -302 712 -66 162 -123 296
-127 298 -4 1 -50 -91 -102 -205z m153 -180 c42 -108 76 -198 74 -200 -3 -2
-81 -2 -174 -1 l-170 3 90 198 c49 108 93 197 96 197 3 0 41 -89 84 -197z"/>
<path d="M1420 953 c-51 -115 -164 -355 -251 -535 l-157 -328 53 0 52 0 31 88
c17 48 53 141 80 207 l48 120 200 3 199 2 39 -102 c22 -57 56 -150 77 -208
l37 -105 71 -3 c79 -3 81 -1 52 56 -38 74 -186 424 -302 712 -66 162 -123 296
-127 298 -4 1 -50 -91 -102 -205z m153 -180 c42 -108 76 -198 74 -200 -3 -2
-81 -2 -174 -1 l-170 3 90 198 c49 108 93 197 96 197 3 0 41 -89 84 -197z"/>
<path d="M5880 953 c-143 -318 -398 -846 -412 -855 -7 -4 14 -8 48 -8 l61 0
31 88 c17 48 53 141 80 207 l48 120 200 3 199 2 39 -102 c22 -57 56 -150 77
-208 l37 -105 71 -3 c79 -3 81 -1 52 56 -38 74 -186 424 -302 712 -66 162
-123 296 -127 298 -4 1 -50 -91 -102 -205z m153 -180 c42 -108 76 -198 74
-200 -3 -2 -81 -2 -174 -1 l-170 3 90 198 c49 108 93 197 96 197 3 0 41 -89
84 -197z"/>
<path d="M2053 1127 c3 -7 28 -49 57 -93 28 -43 110 -177 182 -298 l131 -218
-6 -214 -6 -214 62 0 63 0 -4 228 -4 227 94 155 c80 132 211 338 265 418 15
22 15 22 -39 22 l-54 0 -66 -127 c-65 -127 -213 -390 -228 -406 -8 -9 -138
213 -246 420 l-59 113 -74 0 c-56 0 -72 -3 -68 -13z"/>
<path d="M3045 615 l0 -525 278 0 277 0 0 41 0 42 -67 -7 c-38 -3 -137 -9
-221 -13 l-154 -6 4 496 3 497 -60 0 -60 0 0 -525z"/>
<path d="M4655 1097 c0 -36 2 -38 26 -33 15 3 91 8 169 12 l142 7 -4 -496 -4
-497 61 0 60 0 -3 497 -4 496 136 -7 c75 -3 150 -9 166 -13 29 -5 30 -4 30 33
l0 39 -388 0 -387 0 0 -38z"/>
<path d="M6617 638 c-3 -277 -9 -515 -12 -530 -7 -28 -7 -28 47 -28 l54 0 -8
63 c-4 34 -10 224 -14 422 l-7 360 70 -75 c252 -271 585 -639 675 -748 15 -17
30 -32 35 -32 4 0 8 199 8 443 0 243 3 481 8 529 l7 87 -51 -1 -52 0 7 -66 c3
-37 9 -222 12 -412 l6 -345 -29 30 c-57 58 -292 313 -513 555 -123 135 -226
246 -230 248 -4 2 -10 -223 -13 -500z"/>
</g>
</svg>
