<svg xmlns="http://www.w3.org/2000/svg" width="500" height="500" viewBox="0 0 500 500" version="1.1"><path d="M 271.527 33.086 C 273.868 40.462, 289.596 103.047, 292.081 114.873 C 293.741 122.778, 296.480 133.262, 298.167 138.173 C 299.853 143.083, 301.039 147.294, 300.801 147.532 C 300.564 147.770, 293.424 145.690, 284.935 142.912 C 262.668 135.623, 258.397 134.785, 243.500 134.777 C 226.602 134.768, 216.006 137.118, 198.101 144.848 C 190.620 148.077, 184.346 150.591, 184.157 150.434 C 182.926 149.407, 196.793 115.840, 209.537 89 C 225.433 55.519, 236 32.935, 236 32.439 C 236 32.198, 234.622 32, 232.939 32 C 229.491 32, 231.845 27.629, 208.978 76.500 C 195.254 105.831, 190.250 117.375, 183.405 135.500 C 178.993 147.180, 177.607 149.831, 175.036 151.500 C 173.342 152.600, 171.178 155.066, 170.228 156.979 C 169.220 159.009, 165.164 163.023, 160.489 166.617 C 151.989 173.153, 143.174 181.045, 119.573 203.250 C 111.535 210.813, 104.453 217, 103.836 217 C 101.590 217, 104.490 191.155, 108.079 179.191 C 110.311 171.750, 129.836 117.523, 150.690 60.849 C 154.262 51.140, 157.026 42.365, 156.832 41.349 C 156.638 40.332, 155.492 39.359, 154.284 39.186 C 152.464 38.926, 151.506 40.035, 148.668 45.686 C 138.779 65.383, 128.678 91.229, 114.544 133 C 99.841 176.454, 97.474 186.435, 96.140 210.614 C 95.151 228.531, 94.996 228.901, 81.208 246.203 C 75.819 252.967, 62.684 269.750, 52.020 283.500 C 41.355 297.250, 29.790 312.100, 26.320 316.500 C 20.135 324.342, 19.082 327, 20.974 329.992 C 22.145 331.844, 20.875 333.227, 37.939 311.500 C 95.522 238.181, 95.938 237.675, 96.020 240.750 C 96.031 241.162, 97.206 249.150, 98.632 258.500 C 102.427 283.395, 102.361 282.437, 100.548 286.257 C 99.645 288.161, 94.540 293.957, 89.203 299.138 C 83.866 304.319, 68.774 318.962, 55.665 331.678 L 31.830 354.798 33.243 357.495 L 34.656 360.192 45.578 349.812 C 51.585 344.103, 66.985 329.619, 79.799 317.626 C 101.622 297.202, 103.229 295.908, 105.163 297.192 C 106.614 298.156, 108.382 302.417, 111.112 311.532 C 115.734 326.964, 118.266 333.461, 122.781 341.476 C 128.387 351.429, 134.991 360.041, 144.213 369.424 C 149.037 374.333, 152.762 378.571, 152.491 378.842 C 151.348 379.985, 90.868 386.973, 72.250 388.113 C 61.112 388.795, 52 389.645, 52 390.002 C 52 390.359, 53.012 391.583, 54.250 392.722 C 56.413 394.713, 57.081 394.759, 71.500 393.914 C 92.834 392.662, 127.413 388.610, 148.366 384.907 C 153.607 383.980, 154.460 384.074, 156.366 385.786 C 159.451 388.556, 161.385 389.001, 165.221 387.824 C 168.194 386.912, 169.370 387.158, 174.567 389.782 C 177.837 391.432, 185.910 395.048, 192.506 397.816 C 199.103 400.584, 206.247 403.589, 208.382 404.493 C 210.650 405.454, 211.893 406.507, 211.373 407.027 C 209.402 408.998, 183.130 412.091, 139.500 415.488 C 99.585 418.596, 76.872 420.976, 72.207 422.537 C 71.235 422.863, 71.179 423.466, 71.980 424.962 C 73.959 428.660, 76.428 429.198, 86.299 428.083 C 91.359 427.512, 107.425 426.336, 122 425.471 C 136.575 424.606, 153.900 423.237, 160.500 422.429 C 171.934 421.030, 217.424 413.904, 227.053 412.004 C 230.595 411.305, 234.180 411.629, 243.207 413.461 C 249.587 414.757, 260.814 416.332, 268.154 416.963 C 275.494 417.593, 288.250 418.732, 296.500 419.494 C 306.384 420.408, 329.652 420.986, 364.724 421.190 L 417.949 421.500 420.537 418.914 L 423.126 416.329 370.313 415.663 C 340.138 415.282, 309.065 414.361, 297.822 413.512 C 278.031 412.019, 251.575 409.283, 249.250 408.490 C 247.742 407.975, 247.575 406, 249.039 406 C 253.455 406, 290.505 389.987, 300.363 383.818 C 304.513 381.220, 306.587 380.590, 311.160 380.538 C 315.227 380.491, 317.404 379.944, 318.895 378.595 C 321.342 376.381, 320.757 376.336, 355.500 381.394 C 403.504 388.383, 437.108 393, 439.965 393 C 441.837 393, 443.437 392.214, 444.420 390.810 C 445.264 389.606, 445.852 388.530, 445.727 388.420 C 445.602 388.310, 427.950 385.433, 406.500 382.027 C 334.980 370.671, 327.008 369.341, 326.320 368.653 C 325.943 368.277, 328.261 365.629, 331.469 362.770 C 357.008 340.007, 374.940 307.017, 377.655 277.797 C 378.134 272.644, 378.745 270.671, 380.085 269.954 C 381.990 268.935, 380.900 267.721, 425.023 320 C 434.075 330.725, 446.506 344.675, 452.648 351 L 463.815 362.500 465.016 359.863 C 466.117 357.448, 465.925 356.944, 462.732 353.863 C 459.385 350.635, 451.546 341.711, 425.500 311.477 C 418.900 303.815, 408.980 292.362, 403.455 286.024 C 388.147 268.462, 384.002 262.803, 383.985 259.438 C 383.971 256.547, 383.123 254.593, 379.839 249.882 C 378.821 248.421, 377.543 242.668, 376.535 235 C 375.631 228.125, 374.016 217.911, 372.946 212.302 C 371.876 206.693, 371 201.855, 371 201.552 C 371 199.609, 374.805 202.671, 388.646 215.750 C 405.190 231.383, 422.243 250.281, 443.464 276.500 C 467.608 306.330, 485.188 327.499, 486.096 327.833 C 486.593 328.017, 487 326.318, 487 324.059 C 487 317.361, 483.199 312.078, 440.500 259.439 C 423.463 238.435, 398.395 212.833, 379.788 197.432 C 366.905 186.769, 364.688 183.714, 360.604 171 C 359.279 166.875, 352.723 149.100, 346.035 131.500 C 339.347 113.900, 328.430 84.875, 321.774 67 C 315.119 49.125, 309.002 33.712, 308.182 32.750 C 307.361 31.787, 305.587 31, 304.238 31 C 302.294 31, 301.936 31.363, 302.509 32.750 C 303.546 35.260, 328.133 101.150, 347.657 153.742 C 351.790 164.875, 355.021 174.409, 354.836 174.928 C 354.651 175.447, 347.075 171.651, 338 166.493 C 315.310 153.597, 314.785 153.252, 312.307 149.670 C 304.557 138.465, 304.566 138.491, 294.431 95 C 288.663 70.247, 286.093 60.629, 280.337 42.250 C 276.886 31.228, 276.754 31, 273.840 31 C 271.280 31, 270.957 31.291, 271.527 33.086 M 223.500 143.445 C 211.829 146.446, 204.952 148.948, 193.596 154.327 C 184.459 158.656, 184.294 158.798, 180.503 165.605 C 178.279 169.598, 175.897 175.868, 174.843 180.500 C 172.820 189.388, 167.020 218.075, 167.008 219.250 C 166.988 221.176, 170.215 219.312, 181.894 210.652 C 198.445 198.378, 202.101 195.967, 210.761 191.614 C 226.028 183.939, 236.401 181.208, 253.500 180.359 C 271.707 179.455, 286.895 182.558, 303.806 190.638 C 307.825 192.558, 311.463 193.988, 311.892 193.815 C 312.321 193.642, 311.408 186.750, 309.864 178.500 C 307.492 165.827, 306.709 163.267, 304.815 162 C 303.582 161.175, 301.657 159.444, 300.537 158.152 C 297.649 154.824, 293.312 152.831, 278.500 148.026 C 254.755 140.323, 240.322 139.121, 223.500 143.445 M 314 162.871 C 314 167.408, 319.457 193.976, 321.017 197.034 C 322.166 199.286, 326.036 203.328, 330.248 206.675 C 334.236 209.845, 339.701 214.478, 342.391 216.970 C 348.110 222.268, 365.790 241.388, 368.272 244.959 C 369.493 246.716, 370.289 247.111, 371.059 246.341 C 373.468 243.932, 364.724 197.724, 360.721 191.711 C 359.201 189.429, 331.456 170.117, 324 166.152 C 317.332 162.606, 314 161.513, 314 162.871 M 158.508 177.609 C 152.621 182.345, 144.587 189.160, 140.653 192.755 C 127.416 204.849, 103.924 229.479, 103.313 231.902 C 101.842 237.734, 106.846 276.179, 109.409 278.743 C 110.261 279.594, 158.653 231.405, 160.566 227.800 C 161.355 226.314, 162 223.447, 162 221.428 C 162 212.987, 167.214 185.501, 171.613 170.750 C 172.661 167.235, 169.062 169.119, 158.508 177.609 M 243.909 186.485 C 229.148 189.292, 211.551 197.045, 196.716 207.277 C 184.994 215.361, 167.980 229.931, 166.837 232.861 C 166.201 234.492, 165.993 242.186, 166.290 253 C 166.670 266.784, 167.236 272.191, 168.956 278.462 C 177.754 310.552, 195.127 332.337, 222.414 345.497 C 237.232 352.643, 243.192 354.275, 252.685 353.787 C 259.426 353.440, 261.997 352.793, 267.260 350.122 C 280.191 343.558, 300.371 326.342, 305.608 317.406 C 312.752 305.216, 318.962 279.229, 319.136 260.802 C 319.297 243.684, 316.246 209.241, 314.194 205 C 312.781 202.080, 310.760 200.636, 302 196.290 C 283.025 186.874, 261.220 183.193, 243.909 186.485 M 322.303 214.137 C 324.805 240.872, 325.107 246.870, 324.539 258.500 C 323.827 273.093, 320.939 292.219, 318.021 301.667 C 311.095 324.091, 295.689 341.626, 272.174 353.852 C 267.594 356.233, 264.062 358.395, 264.324 358.657 C 264.845 359.179, 286.485 363.991, 297.261 365.982 C 301.468 366.759, 306.519 366.963, 310.633 366.523 L 317.245 365.815 327.165 356.801 C 349.909 336.136, 365.048 310.932, 370.417 284.792 C 372.684 273.754, 372.516 267.516, 369.880 264.880 C 368.114 263.114, 367.863 262.013, 368.376 258.270 C 369.098 253.004, 369.618 253.746, 352.135 235.074 C 341.162 223.355, 327.820 211.066, 323.604 208.795 C 321.809 207.828, 321.740 208.112, 322.303 214.137 M 156.441 240.759 C 155.463 242.266, 145.642 252.630, 134.616 263.789 C 116.500 282.123, 114.685 284.266, 115.784 286.026 C 117.454 288.700, 117.307 292.116, 115.406 294.831 C 113.942 296.921, 113.954 297.699, 115.549 304.304 C 121.476 328.847, 131.787 347.868, 148.313 364.750 C 156.292 372.900, 157.792 374.008, 160.934 374.070 C 162.895 374.109, 165.364 374.479, 166.421 374.893 C 169.459 376.084, 235.935 362.374, 238.310 360.067 C 238.755 359.635, 236.505 358.242, 233.310 356.973 C 198.176 343.017, 172.896 315.800, 164.599 283 C 162.081 273.046, 160 256.028, 160 245.385 C 160 238.189, 158.973 236.854, 156.441 240.759 M 223 369.848 C 210.075 373.068, 193.650 376.722, 186.500 377.970 C 179.350 379.217, 173.080 380.627, 172.566 381.103 C 169.829 383.638, 220.110 403.399, 229 403.282 C 234.290 403.212, 257.968 395.668, 273 389.263 C 287.047 383.278, 302.357 374.957, 301.288 373.888 C 299.669 372.269, 263.508 364.889, 255 364.441 C 247.184 364.030, 244.609 364.465, 223 369.848" stroke="none" fill="#2a2a2e" fill-rule="evenodd"/><path d="M 0 250.002 L 0 500.004 250.250 499.752 L 500.500 499.500 500.752 249.750 L 501.004 0 250.502 0 L 0 0 0 250.002 M 0.492 250.500 C 0.492 388, 0.608 444.101, 0.750 375.170 C 0.892 306.238, 0.892 193.738, 0.750 125.170 C 0.608 56.601, 0.492 113, 0.492 250.500 M 271.527 33.086 C 273.868 40.462, 289.596 103.047, 292.081 114.873 C 293.741 122.778, 296.480 133.262, 298.167 138.173 C 299.853 143.083, 301.039 147.294, 300.801 147.532 C 300.564 147.770, 293.424 145.690, 284.935 142.912 C 262.668 135.623, 258.397 134.785, 243.500 134.777 C 226.602 134.768, 216.006 137.118, 198.101 144.848 C 190.620 148.077, 184.346 150.591, 184.157 150.434 C 182.926 149.407, 196.793 115.840, 209.537 89 C 225.433 55.519, 236 32.935, 236 32.439 C 236 32.198, 234.622 32, 232.939 32 C 229.491 32, 231.845 27.629, 208.978 76.500 C 195.254 105.831, 190.250 117.375, 183.405 135.500 C 178.993 147.180, 177.607 149.831, 175.036 151.500 C 173.342 152.600, 171.178 155.066, 170.228 156.979 C 169.220 159.009, 165.164 163.023, 160.489 166.617 C 151.989 173.153, 143.174 181.045, 119.573 203.250 C 111.535 210.813, 104.453 217, 103.836 217 C 101.590 217, 104.490 191.155, 108.079 179.191 C 110.311 171.750, 129.836 117.523, 150.690 60.849 C 154.262 51.140, 157.026 42.365, 156.832 41.349 C 156.638 40.332, 155.492 39.359, 154.284 39.186 C 152.464 38.926, 151.506 40.035, 148.668 45.686 C 138.779 65.383, 128.678 91.229, 114.544 133 C 99.841 176.454, 97.474 186.435, 96.140 210.614 C 95.151 228.531, 94.996 228.901, 81.208 246.203 C 75.819 252.967, 62.684 269.750, 52.020 283.500 C 41.355 297.250, 29.790 312.100, 26.320 316.500 C 20.135 324.342, 19.082 327, 20.974 329.992 C 22.145 331.844, 20.875 333.227, 37.939 311.500 C 95.522 238.181, 95.938 237.675, 96.020 240.750 C 96.031 241.162, 97.206 249.150, 98.632 258.500 C 102.427 283.395, 102.361 282.437, 100.548 286.257 C 99.645 288.161, 94.540 293.957, 89.203 299.138 C 83.866 304.319, 68.774 318.962, 55.665 331.678 L 31.830 354.798 33.243 357.495 L 34.656 360.192 45.578 349.812 C 51.585 344.103, 66.985 329.619, 79.799 317.626 C 101.622 297.202, 103.229 295.908, 105.163 297.192 C 106.614 298.156, 108.382 302.417, 111.112 311.532 C 115.734 326.964, 118.266 333.461, 122.781 341.476 C 128.387 351.429, 134.991 360.041, 144.213 369.424 C 149.037 374.333, 152.762 378.571, 152.491 378.842 C 151.348 379.985, 90.868 386.973, 72.250 388.113 C 61.112 388.795, 52 389.645, 52 390.002 C 52 390.359, 53.012 391.583, 54.250 392.722 C 56.413 394.713, 57.081 394.759, 71.500 393.914 C 92.834 392.662, 127.413 388.610, 148.366 384.907 C 153.607 383.980, 154.460 384.074, 156.366 385.786 C 159.451 388.556, 161.385 389.001, 165.221 387.824 C 168.194 386.912, 169.370 387.158, 174.567 389.782 C 177.837 391.432, 185.910 395.048, 192.506 397.816 C 199.103 400.584, 206.247 403.589, 208.382 404.493 C 210.650 405.454, 211.893 406.507, 211.373 407.027 C 209.402 408.998, 183.130 412.091, 139.500 415.488 C 99.585 418.596, 76.872 420.976, 72.207 422.537 C 71.235 422.863, 71.179 423.466, 71.980 424.962 C 73.959 428.660, 76.428 429.198, 86.299 428.083 C 91.359 427.512, 107.425 426.336, 122 425.471 C 136.575 424.606, 153.900 423.237, 160.500 422.429 C 171.934 421.030, 217.424 413.904, 227.053 412.004 C 230.595 411.305, 234.180 411.629, 243.207 413.461 C 249.587 414.757, 260.814 416.332, 268.154 416.963 C 275.494 417.593, 288.250 418.732, 296.500 419.494 C 306.384 420.408, 329.652 420.986, 364.724 421.190 L 417.949 421.500 420.537 418.914 L 423.126 416.329 370.313 415.663 C 340.138 415.282, 309.065 414.361, 297.822 413.512 C 278.031 412.019, 251.575 409.283, 249.250 408.490 C 247.742 407.975, 247.575 406, 249.039 406 C 253.455 406, 290.505 389.987, 300.363 383.818 C 304.513 381.220, 306.587 380.590, 311.160 380.538 C 315.227 380.491, 317.404 379.944, 318.895 378.595 C 321.342 376.381, 320.757 376.336, 355.500 381.394 C 403.504 388.383, 437.108 393, 439.965 393 C 441.837 393, 443.437 392.214, 444.420 390.810 C 445.264 389.606, 445.852 388.530, 445.727 388.420 C 445.602 388.310, 427.950 385.433, 406.500 382.027 C 334.980 370.671, 327.008 369.341, 326.320 368.653 C 325.943 368.277, 328.261 365.629, 331.469 362.770 C 357.008 340.007, 374.940 307.017, 377.655 277.797 C 378.134 272.644, 378.745 270.671, 380.085 269.954 C 381.990 268.935, 380.900 267.721, 425.023 320 C 434.075 330.725, 446.506 344.675, 452.648 351 L 463.815 362.500 465.016 359.863 C 466.117 357.448, 465.925 356.944, 462.732 353.863 C 459.385 350.635, 451.546 341.711, 425.500 311.477 C 418.900 303.815, 408.980 292.362, 403.455 286.024 C 388.147 268.462, 384.002 262.803, 383.985 259.438 C 383.971 256.547, 383.123 254.593, 379.839 249.882 C 378.821 248.421, 377.543 242.668, 376.535 235 C 375.631 228.125, 374.016 217.911, 372.946 212.302 C 371.876 206.693, 371 201.855, 371 201.552 C 371 199.609, 374.805 202.671, 388.646 215.750 C 405.190 231.383, 422.243 250.281, 443.464 276.500 C 467.608 306.330, 485.188 327.499, 486.096 327.833 C 486.593 328.017, 487 326.318, 487 324.059 C 487 317.361, 483.199 312.078, 440.500 259.439 C 423.463 238.435, 398.395 212.833, 379.788 197.432 C 366.905 186.769, 364.688 183.714, 360.604 171 C 359.279 166.875, 352.723 149.100, 346.035 131.500 C 339.347 113.900, 328.430 84.875, 321.774 67 C 315.119 49.125, 309.002 33.712, 308.182 32.750 C 307.361 31.787, 305.587 31, 304.238 31 C 302.294 31, 301.936 31.363, 302.509 32.750 C 303.546 35.260, 328.133 101.150, 347.657 153.742 C 351.790 164.875, 355.021 174.409, 354.836 174.928 C 354.651 175.447, 347.075 171.651, 338 166.493 C 315.310 153.597, 314.785 153.252, 312.307 149.670 C 304.557 138.465, 304.566 138.491, 294.431 95 C 288.663 70.247, 286.093 60.629, 280.337 42.250 C 276.886 31.228, 276.754 31, 273.840 31 C 271.280 31, 270.957 31.291, 271.527 33.086 M 223.500 143.445 C 211.829 146.446, 204.952 148.948, 193.596 154.327 C 184.459 158.656, 184.294 158.798, 180.503 165.605 C 178.279 169.598, 175.897 175.868, 174.843 180.500 C 172.820 189.388, 167.020 218.075, 167.008 219.250 C 166.988 221.176, 170.215 219.312, 181.894 210.652 C 198.445 198.378, 202.101 195.967, 210.761 191.614 C 226.028 183.939, 236.401 181.208, 253.500 180.359 C 271.707 179.455, 286.895 182.558, 303.806 190.638 C 307.825 192.558, 311.463 193.988, 311.892 193.815 C 312.321 193.642, 311.408 186.750, 309.864 178.500 C 307.492 165.827, 306.709 163.267, 304.815 162 C 303.582 161.175, 301.657 159.444, 300.537 158.152 C 297.649 154.824, 293.312 152.831, 278.500 148.026 C 254.755 140.323, 240.322 139.121, 223.500 143.445 M 314 162.871 C 314 167.408, 319.457 193.976, 321.017 197.034 C 322.166 199.286, 326.036 203.328, 330.248 206.675 C 334.236 209.845, 339.701 214.478, 342.391 216.970 C 348.110 222.268, 365.790 241.388, 368.272 244.959 C 369.493 246.716, 370.289 247.111, 371.059 246.341 C 373.468 243.932, 364.724 197.724, 360.721 191.711 C 359.201 189.429, 331.456 170.117, 324 166.152 C 317.332 162.606, 314 161.513, 314 162.871 M 158.508 177.609 C 152.621 182.345, 144.587 189.160, 140.653 192.755 C 127.416 204.849, 103.924 229.479, 103.313 231.902 C 101.842 237.734, 106.846 276.179, 109.409 278.743 C 110.261 279.594, 158.653 231.405, 160.566 227.800 C 161.355 226.314, 162 223.447, 162 221.428 C 162 212.987, 167.214 185.501, 171.613 170.750 C 172.661 167.235, 169.062 169.119, 158.508 177.609 M 243.909 186.485 C 229.148 189.292, 211.551 197.045, 196.716 207.277 C 184.994 215.361, 167.980 229.931, 166.837 232.861 C 166.201 234.492, 165.993 242.186, 166.290 253 C 166.670 266.784, 167.236 272.191, 168.956 278.462 C 177.754 310.552, 195.127 332.337, 222.414 345.497 C 237.232 352.643, 243.192 354.275, 252.685 353.787 C 259.426 353.440, 261.997 352.793, 267.260 350.122 C 280.191 343.558, 300.371 326.342, 305.608 317.406 C 312.752 305.216, 318.962 279.229, 319.136 260.802 C 319.297 243.684, 316.246 209.241, 314.194 205 C 312.781 202.080, 310.760 200.636, 302 196.290 C 283.025 186.874, 261.220 183.193, 243.909 186.485 M 322.303 214.137 C 324.805 240.872, 325.107 246.870, 324.539 258.500 C 323.827 273.093, 320.939 292.219, 318.021 301.667 C 311.095 324.091, 295.689 341.626, 272.174 353.852 C 267.594 356.233, 264.062 358.395, 264.324 358.657 C 264.845 359.179, 286.485 363.991, 297.261 365.982 C 301.468 366.759, 306.519 366.963, 310.633 366.523 L 317.245 365.815 327.165 356.801 C 349.909 336.136, 365.048 310.932, 370.417 284.792 C 372.684 273.754, 372.516 267.516, 369.880 264.880 C 368.114 263.114, 367.863 262.013, 368.376 258.270 C 369.098 253.004, 369.618 253.746, 352.135 235.074 C 341.162 223.355, 327.820 211.066, 323.604 208.795 C 321.809 207.828, 321.740 208.112, 322.303 214.137 M 156.441 240.759 C 155.463 242.266, 145.642 252.630, 134.616 263.789 C 116.500 282.123, 114.685 284.266, 115.784 286.026 C 117.454 288.700, 117.307 292.116, 115.406 294.831 C 113.942 296.921, 113.954 297.699, 115.549 304.304 C 121.476 328.847, 131.787 347.868, 148.313 364.750 C 156.292 372.900, 157.792 374.008, 160.934 374.070 C 162.895 374.109, 165.364 374.479, 166.421 374.893 C 169.459 376.084, 235.935 362.374, 238.310 360.067 C 238.755 359.635, 236.505 358.242, 233.310 356.973 C 198.176 343.017, 172.896 315.800, 164.599 283 C 162.081 273.046, 160 256.028, 160 245.385 C 160 238.189, 158.973 236.854, 156.441 240.759 M 223 369.848 C 210.075 373.068, 193.650 376.722, 186.500 377.970 C 179.350 379.217, 173.080 380.627, 172.566 381.103 C 169.829 383.638, 220.110 403.399, 229 403.282 C 234.290 403.212, 257.968 395.668, 273 389.263 C 287.047 383.278, 302.357 374.957, 301.288 373.888 C 299.669 372.269, 263.508 364.889, 255 364.441 C 247.184 364.030, 244.609 364.465, 223 369.848" stroke="none" fill="#83dad2" fill-rule="evenodd"/></svg>